<svg width="512" height="512" viewBox="0 0 512 512" fill="none" xmlns="http://www.w3.org/2000/svg">
<rect width="512" height="512" rx="100" fill="#1D2021"/>
<path d="M276.084 169.566L282.684 170.166L279.984 318.966C279.784 329.366 281.484 336.566 285.084 340.566C288.684 344.566 295.384 346.566 305.184 346.566C305.584 346.566 305.784 347.166 305.784 348.366C305.784 349.566 305.584 350.166 305.184 350.166C299.584 350.166 295.284 350.066 292.284 349.866L276.084 349.566L261.384 349.866C258.784 350.066 254.884 350.166 249.684 350.166C249.284 350.166 249.084 349.566 249.084 348.366C249.084 347.166 249.284 346.566 249.684 346.566C258.084 346.566 263.984 344.566 267.384 340.566C270.984 336.366 272.884 329.166 273.084 318.966L276.084 169.566ZM479.184 346.566C479.784 346.566 480.084 347.166 480.084 348.366C480.084 349.566 479.784 350.166 479.184 350.166C472.984 350.166 468.084 350.066 464.484 349.866L444.384 349.566L425.784 349.866C422.784 350.066 418.584 350.166 413.184 350.166C412.784 350.166 412.584 349.566 412.584 348.366C412.584 347.166 412.784 346.566 413.184 346.566C420.184 346.566 425.284 346.066 428.484 345.066C431.884 343.866 434.084 341.866 435.084 339.066C436.284 336.266 436.684 331.866 436.284 325.866L430.884 177.966L439.584 166.866L360.984 348.066C360.584 348.866 359.784 349.266 358.584 349.266C357.584 349.266 356.684 348.866 355.884 348.066L282.684 187.566C279.484 180.166 275.284 174.766 270.084 171.366C265.084 167.966 258.984 166.266 251.784 166.266C251.384 166.266 251.184 165.666 251.184 164.466C251.184 163.266 251.384 162.666 251.784 162.666L261.984 162.966C263.984 163.166 266.584 163.266 269.784 163.266C272.984 163.266 275.684 163.166 277.884 162.966C280.084 162.766 281.784 162.666 282.984 162.666C285.784 162.666 287.984 163.666 289.584 165.666C291.184 167.466 293.584 171.666 296.784 178.266L365.484 326.766L357.684 339.366L431.484 170.166C432.484 167.966 433.784 166.166 435.384 164.766C437.184 163.366 438.884 162.666 440.484 162.666C441.284 162.666 442.584 162.766 444.384 162.966C446.184 163.166 448.684 163.266 451.884 163.266L465.384 162.966C467.384 162.766 470.484 162.666 474.684 162.666C475.084 162.666 475.284 163.266 475.284 164.466C475.284 165.666 475.084 166.266 474.684 166.266C464.284 166.266 456.884 167.666 452.484 170.466C448.284 173.066 446.284 178.366 446.484 186.366L452.184 325.866C452.384 332.066 453.084 336.566 454.284 339.366C455.684 342.166 458.184 344.066 461.784 345.066C465.584 346.066 471.384 346.566 479.184 346.566Z" fill="#FE8019"/>
<path d="M60.2007 169.566L66.8007 170.166V318.966C66.8007 329.166 68.5007 336.366 71.9007 340.566C75.3007 344.566 81.2007 346.566 89.6007 346.566C90.2007 346.566 90.5007 347.166 90.5007 348.366C90.5007 349.566 90.2007 350.166 89.6007 350.166C84.8007 350.166 81.1007 350.066 78.5007 349.866L64.1007 349.566L49.4007 349.866C46.8007 350.066 42.9007 350.166 37.7007 350.166C37.3007 350.166 37.1007 349.566 37.1007 348.366C37.1007 347.166 37.3007 346.566 37.7007 346.566C46.3007 346.566 52.2007 344.566 55.4007 340.566C58.6007 336.566 60.2007 329.366 60.2007 318.966V169.566ZM211.101 353.466C211.101 353.866 210.601 354.166 209.601 354.366C208.601 354.566 207.901 354.466 207.501 354.066L71.9007 187.266C65.5007 179.466 59.6007 174.066 54.2007 171.066C49.0007 167.866 43.8007 166.266 38.6007 166.266C38.0007 166.266 37.7007 165.666 37.7007 164.466C37.7007 163.266 38.0007 162.666 38.6007 162.666L49.4007 162.966C51.6007 163.166 54.7007 163.266 58.7007 163.266C62.1007 163.266 64.9007 163.166 67.1007 162.966C69.3007 162.766 71.0007 162.666 72.2007 162.666C73.6007 162.666 74.7007 163.066 75.5007 163.866C76.5007 164.466 77.6007 165.866 78.8007 168.066C81.0007 171.666 83.4007 175.066 86.0007 178.266L208.701 330.666L211.101 353.466ZM211.101 353.466L204.501 344.166V194.166C204.501 183.966 202.901 176.766 199.701 172.566C196.501 168.366 190.701 166.266 182.301 166.266C181.901 166.266 181.701 165.666 181.701 164.466C181.701 163.266 181.901 162.666 182.301 162.666L193.701 162.966C199.701 163.366 204.501 163.566 208.101 163.566C211.501 163.566 216.401 163.366 222.801 162.966L234.501 162.666C235.101 162.666 235.401 163.266 235.401 164.466C235.401 165.666 235.101 166.266 234.501 166.266C225.901 166.266 219.801 168.366 216.201 172.566C212.801 176.766 211.101 183.966 211.101 194.166V353.466Z" fill="#FE8019"/>
<path d="M411.083 348.365C411.083 347.722 411.132 347.076 411.31 346.542C411.476 346.046 411.987 345.065 413.184 345.065L414.467 345.059C420.75 345.001 425.23 344.505 428.015 343.638C431.07 342.553 432.858 340.837 433.671 338.561L433.687 338.517L433.705 338.475C434.693 336.17 435.128 332.422 434.852 327.059L434.787 325.965L434.784 325.921L429.927 192.896L362.36 348.663L362.344 348.699L362.324 348.736C361.583 350.219 360.125 350.766 358.583 350.766C357.223 350.766 356.023 350.24 355.021 349.316L354.823 349.126L354.631 348.935L283.759 193.54L281.483 318.992C281.284 329.322 283.004 336.012 286.198 339.562C289.254 342.957 295.106 344.939 304.284 345.059L305.184 345.065L305.401 345.077C306.443 345.187 306.901 346.077 307.056 346.542C307.234 347.076 307.283 347.722 307.283 348.365C307.283 349.009 307.234 349.656 307.056 350.191C306.89 350.687 306.379 351.666 305.184 351.666C299.597 351.666 295.27 351.566 292.221 351.364L276.085 351.065L261.442 351.364C258.783 351.566 254.856 351.666 249.684 351.666C248.488 351.666 247.976 350.687 247.81 350.191C247.632 349.656 247.583 349.009 247.583 348.365C247.583 347.722 247.632 347.076 247.81 346.542C247.976 346.046 248.487 345.065 249.684 345.065L250.446 345.059C258.237 344.941 263.353 342.991 266.241 339.594L266.245 339.59C269.494 335.799 271.385 329.045 271.583 318.935L274.431 177.077C272.964 175.457 271.393 174.076 269.719 172.927L269.263 172.621L269.24 172.606C264.827 169.606 259.461 167.977 253.075 167.785L251.783 167.766C250.587 167.766 250.076 166.786 249.911 166.29C249.733 165.755 249.684 165.11 249.684 164.466C249.684 163.822 249.733 163.175 249.911 162.641C250.076 162.145 250.587 161.166 251.783 161.166H251.828L262.028 161.466L262.081 161.468L262.132 161.473C264.062 161.666 266.608 161.766 269.783 161.766V163.266L267.496 163.247C265.322 163.21 263.484 163.116 261.984 162.966L251.783 162.666C251.383 162.666 251.184 163.267 251.184 164.466L251.193 164.888C251.236 165.806 251.433 166.266 251.783 166.266C258.983 166.266 265.083 167.966 270.083 171.365C272.202 172.751 274.156 174.469 275.943 176.519L273.083 318.966L273.026 320.843C272.639 330.054 270.758 336.628 267.384 340.565C263.984 344.565 258.084 346.565 249.684 346.565C249.284 346.565 249.083 347.166 249.083 348.365C249.083 349.49 249.259 350.088 249.611 350.158L249.684 350.166C254.884 350.166 258.784 350.065 261.384 349.865L276.083 349.565L292.283 349.865C294.533 350.015 297.515 350.109 301.227 350.147L305.184 350.166C305.584 350.165 305.783 349.565 305.783 348.365C305.783 347.24 305.608 346.642 305.256 346.573L305.184 346.565C295.384 346.565 288.683 344.565 285.083 340.565C281.708 336.815 280.003 330.253 279.968 320.878L279.984 318.966L282.379 186.888C282.48 187.113 282.585 187.337 282.684 187.565L355.884 348.065C356.583 348.765 357.36 349.16 358.213 349.247L358.583 349.266C359.708 349.266 360.482 348.914 360.904 348.212L360.984 348.065L431.184 186.225L436.283 325.865C436.683 331.865 436.283 336.265 435.083 339.065C434.083 341.865 431.884 343.865 428.484 345.065L427.862 345.247C424.639 346.126 419.746 346.565 413.184 346.565C412.784 346.565 412.583 347.166 412.583 348.365C412.583 349.49 412.759 350.088 413.111 350.158L413.184 350.166C418.583 350.166 422.783 350.065 425.783 349.865L444.384 349.565L464.484 349.865C467.184 350.015 470.615 350.109 474.778 350.147L479.184 350.166C479.784 350.166 480.083 349.565 480.083 348.365C480.083 347.24 479.82 346.643 479.292 346.573L479.184 346.565C471.384 346.565 465.583 346.065 461.783 345.065C458.183 344.065 455.683 342.165 454.283 339.365C453.158 336.74 452.472 332.621 452.226 327.008L452.184 325.865L446.484 186.365C446.29 178.616 448.161 173.4 452.096 170.718L452.484 170.466C456.609 167.841 463.371 166.446 472.769 166.282L474.684 166.266C475.034 166.266 475.23 165.806 475.274 164.888L475.283 164.466C475.283 163.266 475.084 162.666 474.684 162.666C470.484 162.666 467.384 162.766 465.384 162.966L451.884 163.266L449.615 163.247C447.833 163.216 446.325 163.146 445.091 163.036L444.384 162.966C443.033 162.816 441.965 162.722 441.177 162.685L440.484 162.666C438.884 162.666 437.184 163.366 435.384 164.766C433.784 166.166 432.484 167.966 431.484 170.166L364.298 324.201L296.783 178.266C293.583 171.666 291.183 167.466 289.583 165.666C288.083 163.791 286.056 162.795 283.501 162.677L282.984 162.666C281.784 162.666 280.084 162.766 277.884 162.966L277.035 163.036C275.001 163.19 272.583 163.266 269.783 163.266V161.766C272.956 161.766 275.608 161.666 277.747 161.472C279.962 161.271 281.716 161.166 282.984 161.166C286.188 161.166 288.836 162.335 290.749 164.722C292.286 166.475 294.366 170.037 296.972 175.252L298.134 177.612L298.139 177.623L298.145 177.636L364.257 320.542L430.109 169.567L430.113 169.555L430.117 169.545C431.194 167.177 432.615 165.196 434.396 163.637L434.428 163.608L434.462 163.581C436.416 162.061 438.435 161.166 440.484 161.166C441.374 161.166 442.745 161.274 444.549 161.475C446.263 161.665 448.691 161.764 451.859 161.765L465.306 161.466C467.385 161.263 470.523 161.166 474.684 161.166C475.879 161.166 476.39 162.145 476.556 162.641C476.734 163.175 476.783 163.822 476.783 164.466L476.773 164.947C476.751 165.425 476.69 165.889 476.556 166.29C476.391 166.786 475.88 167.766 474.684 167.766C464.335 167.766 457.307 169.175 453.288 171.732L453.272 171.74C449.762 173.914 447.792 178.505 447.983 186.304L453.682 325.804V325.817C453.88 331.953 454.572 336.204 455.647 338.737C456.822 341.057 458.919 342.709 462.165 343.615C465.546 344.505 470.715 345.001 477.751 345.059L479.184 345.065C479.596 345.065 480.025 345.173 480.41 345.43C480.786 345.681 481.037 346.018 481.201 346.345C481.507 346.959 481.583 347.689 481.583 348.365C481.583 349.042 481.508 349.774 481.201 350.387C481.037 350.715 480.786 351.05 480.41 351.301C480.025 351.558 479.596 351.666 479.184 351.666C472.982 351.666 468.056 351.566 464.417 351.364L444.385 351.065L425.844 351.364C422.798 351.566 418.572 351.666 413.184 351.666C411.988 351.666 411.476 350.687 411.31 350.191C411.132 349.656 411.083 349.009 411.083 348.365Z" fill="black"/>
<path d="M35.6013 348.365C35.6013 347.722 35.6503 347.076 35.8284 346.542C35.9937 346.046 36.5043 345.065 37.7004 345.065C46.1468 345.065 51.4608 343.09 54.2297 339.629C57.0867 336.058 58.7004 329.319 58.7004 318.966V175.936C57.2415 174.773 55.8248 173.775 54.448 172.943L53.4724 172.378L53.4431 172.36L53.4153 172.343C48.7226 169.455 44.0943 167.96 39.5154 167.784L38.6013 167.766C38.189 167.766 37.7606 167.658 37.3752 167.402C36.9991 167.151 36.7482 166.814 36.5842 166.486C36.2777 165.873 36.2005 165.142 36.2004 164.466C36.2004 163.789 36.2775 163.058 36.5842 162.445C36.7482 162.117 36.9993 161.781 37.3752 161.531C37.7607 161.274 38.1889 161.166 38.6013 161.166H38.6423L49.4426 161.466L49.4895 161.468L49.5364 161.472C51.6689 161.666 54.7159 161.766 58.7004 161.766V163.266L55.8689 163.247C53.2067 163.21 51.05 163.116 49.4001 162.966L38.6013 162.666C38.0013 162.666 37.7004 163.266 37.7004 164.466L37.7151 164.888C37.7808 165.806 38.0764 166.266 38.6013 166.266C43.801 166.266 49.0008 167.865 54.2004 171.065C56.1367 172.141 58.1356 173.528 60.2004 175.221V318.966L60.1814 320.878C59.994 330.253 58.4002 336.815 55.4001 340.565C52.2001 344.565 46.3004 346.565 37.7004 346.565C37.3007 346.565 37.1014 347.166 37.1013 348.365L37.1101 348.787C37.1538 349.706 37.3506 350.166 37.7004 350.166C42.9001 350.166 46.8001 350.065 49.4001 349.865L64.1013 349.565L78.5007 349.865C80.4508 350.015 83.0196 350.109 86.2073 350.147L89.6013 350.166C90.126 350.165 90.4205 349.706 90.4861 348.787L90.5007 348.365C90.5007 347.241 90.237 346.643 89.7097 346.573L89.6013 346.565C81.2013 346.565 75.3001 344.565 71.9001 340.565C68.7129 336.628 67.0192 330.053 66.8201 320.843L66.801 318.966V181.449C68.4636 183.212 70.164 185.15 71.9001 187.266L207.501 354.065C207.851 354.415 208.43 354.536 209.24 354.427L209.601 354.365C210.539 354.178 211.037 353.903 211.095 353.539L211.101 353.466V194.166C211.101 183.966 212.8 176.765 216.2 172.565C219.688 168.496 225.522 166.399 233.702 166.272L234.501 166.266C235.026 166.266 235.321 165.807 235.387 164.888L235.4 164.466C235.4 163.266 235.101 162.666 234.501 162.666L222.801 162.966C216.401 163.366 211.501 163.565 208.101 163.565V162.065C211.454 162.065 216.317 161.868 222.707 161.469L222.763 161.466L234.463 161.166H234.501C234.913 161.166 235.341 161.274 235.727 161.531C236.103 161.781 236.354 162.117 236.518 162.445C236.825 163.058 236.9 163.789 236.9 164.466L236.884 164.98C236.848 165.5 236.748 166.026 236.518 166.486C236.354 166.814 236.103 167.151 235.727 167.402C235.341 167.659 234.913 167.766 234.501 167.766C226.108 167.766 220.543 169.818 217.353 173.528C214.301 177.313 212.601 184.06 212.601 194.166V358.171L210.778 355.6C210.491 355.699 210.192 355.777 209.894 355.836C208.857 356.044 207.574 356.085 206.625 355.296L206.44 355.126L206.386 355.072L206.336 355.011L70.7371 188.213V188.211C69.9156 187.21 69.1028 186.252 68.301 185.334V318.966L68.3201 320.823C68.5179 329.895 70.1877 336.044 73.0442 339.594C75.932 342.991 81.0476 344.941 88.8381 345.059L89.6013 345.065L89.9119 345.087C90.2241 345.129 90.5369 345.237 90.8259 345.43C91.202 345.681 91.453 346.018 91.6169 346.345C91.9235 346.959 92.0007 347.689 92.0007 348.365L91.9846 348.881C91.9487 349.401 91.8469 349.927 91.6169 350.387C91.453 350.715 91.2019 351.05 90.8259 351.301C90.4407 351.558 90.0135 351.666 89.6013 351.666C84.8212 351.666 81.0935 351.566 78.4392 351.364L64.0984 351.065L49.4587 351.364C46.8 351.566 42.8721 351.666 37.7004 351.666C36.5048 351.666 35.9939 350.687 35.8284 350.191C35.6502 349.656 35.6013 349.009 35.6013 348.365ZM72.2004 161.166C73.8344 161.166 75.3008 161.625 76.4294 162.68C77.7276 163.53 78.9268 165.177 80.0813 167.283C81.9764 170.384 84.0202 173.334 86.2146 176.131L87.1653 177.32L87.1697 177.324L203.001 321.193V194.166C203.001 184.35 201.493 177.689 198.775 173.838L198.508 173.475C195.813 169.938 190.835 167.896 183.061 167.772L182.301 167.766C181.105 167.766 180.593 166.786 180.427 166.29C180.249 165.755 180.2 165.11 180.2 164.466C180.2 163.822 180.249 163.175 180.427 162.641C180.593 162.145 181.105 161.166 182.301 161.166H182.341L193.74 161.466L193.771 161.468L193.8 161.469C199.786 161.868 204.549 162.065 208.101 162.065V163.565L206.695 163.556C203.282 163.513 198.951 163.316 193.7 162.966L182.301 162.666C181.901 162.666 181.7 163.266 181.7 164.466L181.711 164.888C181.754 165.806 181.951 166.266 182.301 166.266C190.701 166.266 196.5 168.366 199.7 172.565C202.9 176.765 204.501 183.966 204.501 194.166V325.449L86.0007 178.266C83.7258 175.466 81.6032 172.513 79.6345 169.407L78.801 168.065C77.6761 166.003 76.6389 164.643 75.6897 163.987L75.5007 163.865C74.7007 163.066 73.6004 162.666 72.2004 162.666C71.0006 162.666 69.3009 162.766 67.1013 162.966L66.2473 163.036C64.1911 163.189 61.6753 163.266 58.7004 163.266V161.766C62.0764 161.766 64.8274 161.666 66.9651 161.472C69.1793 161.271 70.9323 161.166 72.2004 161.166Z" fill="black"/>
</svg>
