<svg width="512" height="512" viewBox="0 0 512 512" fill="none" xmlns="http://www.w3.org/2000/svg">
<rect width="512" height="512" rx="100" fill="#1D2021"/>
<path d="M270.253 199.6L274.653 200L272.853 299.2C272.72 306.133 273.853 310.933 276.253 313.6C278.653 316.267 283.12 317.6 289.653 317.6C289.92 317.6 290.053 318 290.053 318.8C290.053 319.6 289.92 320 289.653 320C285.92 320 283.053 319.933 281.053 319.8L270.253 319.6L260.453 319.8C258.72 319.933 256.12 320 252.653 320C252.386 320 252.253 319.6 252.253 318.8C252.253 318 252.386 317.6 252.653 317.6C258.253 317.6 262.186 316.267 264.453 313.6C266.853 310.8 268.12 306 268.253 299.2L270.253 199.6ZM405.653 317.6C406.053 317.6 406.253 318 406.253 318.8C406.253 319.6 406.053 320 405.653 320C401.52 320 398.253 319.933 395.853 319.8L382.453 319.6L370.053 319.8C368.053 319.933 365.253 320 361.653 320C361.386 320 361.253 319.6 361.253 318.8C361.253 318 361.386 317.6 361.653 317.6C366.32 317.6 369.72 317.267 371.853 316.6C374.12 315.8 375.586 314.467 376.253 312.6C377.053 310.733 377.32 307.8 377.053 303.8L373.453 205.2L379.253 197.8L326.853 318.6C326.586 319.133 326.053 319.4 325.253 319.4C324.586 319.4 323.986 319.133 323.453 318.6L274.653 211.6C272.52 206.667 269.72 203.067 266.253 200.8C262.92 198.533 258.853 197.4 254.053 197.4C253.786 197.4 253.653 197 253.653 196.2C253.653 195.4 253.786 195 254.053 195L260.853 195.2C262.186 195.333 263.92 195.4 266.053 195.4C268.186 195.4 269.986 195.333 271.453 195.2C272.92 195.067 274.053 195 274.853 195C276.72 195 278.186 195.667 279.253 197C280.32 198.2 281.92 201 284.053 205.4L329.853 304.4L324.653 312.8L373.853 200C374.52 198.533 375.386 197.333 376.453 196.4C377.653 195.467 378.786 195 379.853 195C380.386 195 381.253 195.067 382.453 195.2C383.653 195.333 385.32 195.4 387.453 195.4L396.453 195.2C397.786 195.067 399.853 195 402.653 195C402.92 195 403.053 195.4 403.053 196.2C403.053 197 402.92 197.4 402.653 197.4C395.72 197.4 390.786 198.333 387.853 200.2C385.053 201.933 383.72 205.467 383.853 210.8L387.653 303.8C387.786 307.933 388.253 310.933 389.053 312.8C389.986 314.667 391.653 315.933 394.053 316.6C396.586 317.267 400.453 317.6 405.653 317.6Z" fill="#FE8019"/>
<path d="M126.331 199.6L130.731 200V299.2C130.731 306 131.865 310.8 134.131 313.6C136.398 316.267 140.331 317.6 145.931 317.6C146.331 317.6 146.531 318 146.531 318.8C146.531 319.6 146.331 320 145.931 320C142.731 320 140.265 319.933 138.531 319.8L128.931 319.6L119.131 319.8C117.398 319.933 114.798 320 111.331 320C111.065 320 110.931 319.6 110.931 318.8C110.931 318 111.065 317.6 111.331 317.6C117.065 317.6 120.998 316.267 123.131 313.6C125.265 310.933 126.331 306.133 126.331 299.2V199.6ZM226.931 322.2C226.931 322.467 226.598 322.667 225.931 322.8C225.265 322.933 224.798 322.867 224.531 322.6L134.131 211.4C129.865 206.2 125.931 202.6 122.331 200.6C118.865 198.467 115.398 197.4 111.931 197.4C111.531 197.4 111.331 197 111.331 196.2C111.331 195.4 111.531 195 111.931 195L119.131 195.2C120.598 195.333 122.665 195.4 125.331 195.4C127.598 195.4 129.465 195.333 130.931 195.2C132.398 195.067 133.531 195 134.331 195C135.265 195 135.998 195.267 136.531 195.8C137.198 196.2 137.931 197.133 138.731 198.6C140.198 201 141.798 203.267 143.531 205.4L225.331 307L226.931 322.2ZM226.931 322.2L222.531 316V216C222.531 209.2 221.465 204.4 219.331 201.6C217.198 198.8 213.331 197.4 207.731 197.4C207.465 197.4 207.331 197 207.331 196.2C207.331 195.4 207.465 195 207.731 195L215.331 195.2C219.331 195.467 222.531 195.6 224.931 195.6C227.198 195.6 230.465 195.467 234.731 195.2L242.531 195C242.931 195 243.131 195.4 243.131 196.2C243.131 197 242.931 197.4 242.531 197.4C236.798 197.4 232.731 198.8 230.331 201.6C228.065 204.4 226.931 209.2 226.931 216V322.2Z" fill="#FE8019"/>
<path d="M360.253 318.8C360.253 318.371 360.286 317.94 360.404 317.584C360.515 317.253 360.856 316.6 361.653 316.6L362.509 316.596C366.697 316.557 369.684 316.226 371.541 315.648C373.578 314.925 374.77 313.781 375.312 312.264L375.322 312.234L375.334 312.206C375.992 310.67 376.283 308.171 376.099 304.596L376.056 303.866L376.054 303.837L372.815 215.153L327.771 318.998L327.76 319.022L327.747 319.047C327.253 320.036 326.281 320.4 325.253 320.4C324.346 320.4 323.546 320.049 322.878 319.434L322.746 319.307L322.618 319.18L275.37 215.583L273.853 299.218C273.72 306.104 274.867 310.564 276.996 312.931C279.033 315.194 282.935 316.515 289.054 316.596L289.653 316.6L289.798 316.607C290.493 316.681 290.798 317.274 290.901 317.584C291.02 317.94 291.053 318.371 291.053 318.8C291.053 319.229 291.02 319.66 290.901 320.017C290.791 320.347 290.45 321 289.653 321C285.929 321 283.044 320.933 281.012 320.799L270.254 320.6L260.492 320.799C258.72 320.933 256.101 321 252.653 321C251.856 321 251.515 320.347 251.404 320.017C251.286 319.66 251.253 319.229 251.253 318.8C251.253 318.371 251.286 317.94 251.404 317.584C251.515 317.253 251.856 316.6 252.653 316.6L253.161 316.596C258.355 316.517 261.766 315.217 263.691 312.952L263.694 312.949C265.86 310.422 267.121 305.92 267.253 299.18L269.151 204.607C268.174 203.528 267.126 202.607 266.01 201.841L265.706 201.637L265.69 201.627C262.749 199.627 259.171 198.541 254.914 198.413L254.053 198.4C253.255 198.4 252.915 197.747 252.805 197.416C252.686 197.06 252.653 196.629 252.653 196.2C252.653 195.771 252.686 195.34 252.805 194.983C252.915 194.653 253.256 194 254.053 194H254.083L260.883 194.2L260.918 194.201L260.952 194.205C262.239 194.334 263.936 194.4 266.053 194.4V195.4L264.528 195.388C263.078 195.363 261.853 195.3 260.854 195.2L254.053 195C253.786 195 253.653 195.401 253.653 196.2L253.659 196.481C253.688 197.093 253.82 197.4 254.053 197.4C258.853 197.4 262.92 198.533 266.253 200.8C267.666 201.724 268.968 202.869 270.159 204.235L268.253 299.2L268.215 300.451C267.957 306.592 266.703 310.975 264.453 313.6C262.186 316.266 258.253 317.6 252.653 317.6C252.387 317.6 252.253 318 252.253 318.8C252.253 319.55 252.37 319.948 252.604 319.995L252.653 320C256.12 320 258.72 319.933 260.453 319.8L270.253 319.6L281.053 319.8C282.553 319.9 284.541 319.962 287.016 319.987L289.653 320C289.92 320 290.053 319.6 290.053 318.8C290.053 318.049 289.936 317.651 289.701 317.604L289.653 317.6C283.12 317.6 278.653 316.266 276.253 313.6C274.003 311.1 272.866 306.725 272.843 300.475L272.854 299.2L274.45 211.148C274.517 211.298 274.587 211.447 274.653 211.6L323.453 318.6C323.92 319.066 324.437 319.329 325.006 319.388L325.253 319.4C326.003 319.4 326.519 319.166 326.8 318.697L326.854 318.6L373.653 210.706L377.053 303.8C377.319 307.8 377.053 310.733 376.253 312.6C375.586 314.466 374.12 315.8 371.854 316.6L371.438 316.721C369.29 317.307 366.028 317.6 361.653 317.6C361.387 317.6 361.253 318 361.253 318.8C361.253 319.55 361.37 319.948 361.604 319.995L361.653 320C365.253 320 368.053 319.933 370.053 319.8L382.453 319.6L395.854 319.8C397.653 319.9 399.941 319.962 402.716 319.987L405.653 320C406.053 320 406.253 319.6 406.253 318.8C406.253 318.05 406.077 317.651 405.726 317.604L405.653 317.6C400.453 317.6 396.586 317.266 394.053 316.6C391.653 315.933 389.986 314.666 389.053 312.8C388.303 311.05 387.846 308.304 387.682 304.562L387.653 303.8L383.854 210.8C383.724 205.633 384.971 202.156 387.595 200.368L387.854 200.2C390.604 198.45 395.111 197.52 401.377 197.411L402.653 197.4C402.887 197.4 403.018 197.094 403.047 196.481L403.053 196.2C403.053 195.4 402.92 195 402.653 195C399.853 195 397.786 195.067 396.453 195.2L387.453 195.4L385.94 195.388C384.753 195.367 383.748 195.32 382.925 195.247L382.453 195.2C381.553 195.1 380.84 195.038 380.315 195.013L379.854 195C378.787 195 377.653 195.467 376.453 196.4C375.387 197.334 374.52 198.533 373.854 200L329.062 302.69L284.053 205.4C281.919 201 280.32 198.2 279.253 197C278.253 195.75 276.901 195.086 275.198 195.008L274.854 195C274.054 195 272.92 195.067 271.453 195.2L270.888 195.247C269.531 195.349 267.919 195.4 266.053 195.4V194.4C268.168 194.4 269.936 194.334 271.362 194.204C272.839 194.07 274.008 194 274.854 194C276.989 194 278.755 194.779 280.03 196.371C281.055 197.54 282.441 199.914 284.179 203.391L284.953 204.964L284.957 204.972L284.961 204.98L329.035 300.251L372.937 199.601L372.939 199.593L372.942 199.586C373.66 198.007 374.607 196.687 375.795 195.647L375.816 195.628L375.839 195.61C377.142 194.597 378.487 194 379.854 194C380.447 194 381.361 194.072 382.563 194.206C383.706 194.333 385.325 194.399 387.437 194.399L396.401 194.2C397.787 194.065 399.88 194 402.653 194C403.45 194 403.791 194.653 403.901 194.983C404.02 195.34 404.053 195.771 404.053 196.2L404.046 196.521C404.031 196.84 403.99 197.149 403.901 197.416C403.791 197.747 403.451 198.4 402.653 198.4C395.754 198.4 391.068 199.339 388.39 201.044L388.379 201.05C386.039 202.499 384.725 205.56 384.853 210.759L388.652 303.759V303.768C388.784 307.858 389.246 310.692 389.962 312.381C390.745 313.928 392.143 315.029 394.308 315.633C396.561 316.226 400.007 316.557 404.698 316.596L405.653 316.6C405.928 316.6 406.214 316.671 406.471 316.843C406.721 317.01 406.889 317.235 406.998 317.453C407.202 317.862 407.253 318.349 407.253 318.8C407.253 319.251 407.203 319.738 406.998 320.147C406.889 320.366 406.721 320.59 406.471 320.757C406.214 320.928 405.928 321 405.653 321C401.519 321 398.234 320.933 395.809 320.799L382.454 320.6L370.094 320.799C368.063 320.933 365.246 321 361.653 321C360.856 321 360.515 320.347 360.404 320.017C360.286 319.66 360.253 319.229 360.253 318.8Z" fill="black"/>
<path d="M109.932 318.8C109.932 318.371 109.964 317.94 110.083 317.584C110.193 317.253 110.534 316.6 111.331 316.6C116.962 316.6 120.505 315.283 122.351 312.976C124.255 310.595 125.331 306.102 125.331 299.2V203.847C124.358 203.071 123.414 202.406 122.496 201.852L121.846 201.475L121.826 201.463L121.808 201.451C118.679 199.526 115.594 198.529 112.541 198.412L111.932 198.4C111.657 198.4 111.371 198.328 111.114 198.157C110.864 197.99 110.696 197.766 110.587 197.547C110.383 197.138 110.331 196.651 110.331 196.2C110.331 195.749 110.382 195.262 110.587 194.853C110.696 194.634 110.864 194.41 111.114 194.243C111.371 194.072 111.657 194 111.932 194H111.959L119.159 194.2L119.19 194.201L119.222 194.204C120.643 194.333 122.675 194.4 125.331 194.4V195.4L123.443 195.388C121.669 195.363 120.231 195.3 119.131 195.2L111.932 195C111.532 195 111.331 195.4 111.331 196.2L111.341 196.481C111.385 197.094 111.582 197.4 111.932 197.4C115.398 197.4 118.865 198.466 122.331 200.6C123.622 201.317 124.954 202.242 126.331 203.37V299.2L126.318 300.475C126.193 306.725 125.131 311.1 123.131 313.6C120.998 316.266 117.064 317.6 111.331 317.6C111.065 317.6 110.932 318 110.932 318.8L110.938 319.081C110.967 319.694 111.098 320 111.331 320C114.797 320 117.398 319.933 119.131 319.8L128.932 319.6L138.531 319.8C139.831 319.9 141.544 319.962 143.669 319.987L145.932 320C146.281 320 146.478 319.693 146.521 319.081L146.531 318.8C146.531 318.05 146.355 317.651 146.004 317.604L145.932 317.6C140.332 317.6 136.398 316.266 134.131 313.6C132.006 310.975 130.877 306.592 130.744 300.451L130.731 299.2V207.522C131.84 208.698 132.973 209.99 134.131 211.4L224.531 322.6C224.765 322.833 225.151 322.914 225.69 322.841L225.932 322.8C226.557 322.675 226.889 322.491 226.928 322.249L226.932 322.2V216C226.932 209.2 228.064 204.4 230.331 201.6C232.656 198.887 236.546 197.489 241.999 197.404L242.531 197.4C242.881 197.4 243.078 197.094 243.122 196.481L243.131 196.2C243.131 195.4 242.931 195 242.531 195L234.731 195.2C230.465 195.467 227.198 195.6 224.932 195.6V194.6C227.167 194.6 230.409 194.468 234.669 194.202L234.706 194.2L242.506 194H242.531C242.806 194 243.092 194.072 243.349 194.243C243.599 194.41 243.767 194.634 243.876 194.853C244.08 195.261 244.131 195.749 244.131 196.2L244.12 196.543C244.096 196.889 244.029 197.24 243.876 197.547C243.767 197.765 243.599 197.99 243.349 198.157C243.092 198.329 242.806 198.4 242.531 198.4C236.936 198.4 233.226 199.768 231.1 202.241C229.064 204.765 227.932 209.263 227.932 216V325.337L226.716 323.623C226.525 323.689 226.325 323.741 226.127 323.78C225.435 323.919 224.58 323.946 223.947 323.42L223.824 323.307L223.788 323.271L223.755 323.23L133.355 212.031V212.03C132.808 211.363 132.266 210.724 131.731 210.112V299.2L131.744 300.438C131.876 306.486 132.989 310.586 134.894 312.952C136.819 315.217 140.229 316.517 145.423 316.596L145.932 316.6L146.139 316.614C146.347 316.642 146.555 316.714 146.748 316.843C146.999 317.01 147.166 317.234 147.275 317.453C147.48 317.862 147.531 318.349 147.531 318.8L147.521 319.144C147.497 319.49 147.429 319.841 147.275 320.147C147.166 320.366 146.999 320.59 146.748 320.757C146.491 320.928 146.206 321 145.932 321C142.745 321 140.26 320.933 138.49 320.799L128.93 320.6L119.17 320.799C117.397 320.933 114.779 321 111.331 321C110.534 321 110.193 320.347 110.083 320.017C109.964 319.66 109.932 319.229 109.932 318.8ZM134.331 194C135.42 194 136.398 194.306 137.15 195.01C138.016 195.576 138.815 196.674 139.585 198.078C140.848 200.146 142.211 202.112 143.674 203.977L144.308 204.77L144.311 204.772L221.531 300.685V216C221.531 209.456 220.526 205.015 218.714 202.448L218.536 202.206C216.74 199.848 213.421 198.487 208.238 198.404L207.731 198.4C206.934 198.4 206.593 197.747 206.482 197.416C206.364 197.06 206.331 196.629 206.331 196.2C206.331 195.771 206.364 195.34 206.482 194.983C206.593 194.653 206.934 194 207.731 194H207.758L215.357 194.2L215.378 194.201L215.397 194.202C219.388 194.468 222.564 194.6 224.932 194.6V195.6L223.994 195.594C221.719 195.565 218.831 195.434 215.331 195.2L207.731 195C207.465 195 207.331 195.4 207.331 196.2L207.338 196.481C207.367 197.094 207.498 197.4 207.731 197.4C213.331 197.4 217.198 198.8 219.331 201.6C221.464 204.4 222.531 209.2 222.531 216V303.522L143.531 205.4C142.015 203.534 140.6 201.565 139.287 199.494L138.731 198.6C137.981 197.225 137.29 196.318 136.657 195.881L136.531 195.8C135.998 195.267 135.264 195 134.331 195C133.531 195 132.398 195.067 130.932 195.2L130.362 195.247C128.992 195.349 127.314 195.4 125.331 195.4V194.4C127.582 194.4 129.416 194.334 130.841 194.204C132.317 194.07 133.486 194 134.331 194Z" fill="black"/>
</svg>
